<svg xmlns="http://www.w3.org/2000/svg" width="3096" height="3242" viewBox="0 0 3096 3242">
  <path d="M 3089 61 L 2586 15 L 2525 193 L 3011 424 L 2454 321 L 2472 641 L 2274 653 L 2311 920 L 2113 903 L 2075 1213 L 1920 1158 L 1787 1300 L 1842 1470 L 1684 1404 L 1532 1538 L 1587 1711 L 1436 1621 L 1276 1734 L 1321 1928 L 1167 1810 L 993 1910 L 1057 2231 L 863 1985 L 709 2053 L 792 2463 L 593 2113 L 354 2193 L 513 3125 L 230 2231 L 33 2288 L 118 3237 L 1313 2765 L 1211 2537 L 1336 2755 L 2121 2107 L 2792 1108 Z" fill="rgb(0,0,0)" fill-rule="evenodd"/>
</svg>