<svg xmlns="http://www.w3.org/2000/svg" width="2778" height="4221" viewBox="0 0 2778 4221">
  <path d="M 48 5 L 4 727 L 439 706 L 5 811 L 123 1591 L 534 2555 L 1423 3582 L 2612 4220 L 2749 3272 L 2415 3305 L 2165 3985 L 2409 3135 L 2227 3054 L 1947 3541 L 2121 2984 L 1835 2992 L 1864 2818 L 1560 2784 L 1601 2610 L 1286 2538 L 1227 2236 L 1071 2281 L 1043 2000 L 812 1941 L 844 1698 L 661 1728 L 774 1575 L 519 1392 L 565 1102 L 56 1127 L 519 964 L 390 364 L 126 362 L 386 353 L 372 25 Z" fill="rgb(0,0,0)" fill-rule="evenodd"/>
</svg>