<svg xmlns="http://www.w3.org/2000/svg" width="6516" height="2716" viewBox="0 0 6516 2716">
  <path d="M 6515 412 L 6219 185 L 5595 376 L 5416 0 L 4923 732 L 5549 1140 L 5080 1106 L 4883 770 L 4529 1266 L 4992 1931 L 4674 1616 L 4065 2131 L 3559 2143 L 2444 2131 L 1834 1616 L 1506 1795 L 1985 1270 L 1638 770 L 1024 1209 L 1597 720 L 1098 6 L 920 376 L 296 185 L 0 421 L 794 1551 L 1111 1315 L 811 1580 L 1505 2287 L 1824 2011 L 1523 2294 L 1738 2472 L 4075 2715 L 4979 2316 L 4796 2089 L 5015 2287 L 5559 1773 L 5241 1535 L 5576 1759 L 5988 1174 L 5664 933 L 6004 1145 Z" fill="rgb(0,0,0)" fill-rule="evenodd"/>
</svg>